<?xml version="1.0" encoding="utf-8"?>
<!-- Generator: Adobe Illustrator 24.1.1, SVG Export Plug-In . SVG Version: 6.00 Build 0)  -->
<svg version="1.1" id="Layer_1" xmlns="http://www.w3.org/2000/svg" xmlns:xlink="http://www.w3.org/1999/xlink" x="0px" y="0px"
	 viewBox="0 0 485 130" style="enable-background:new 0 0 485 130;" xml:space="preserve">
<style type="text/css">
	.st0{fill:#FFFFFF;}
	.st1{fill:#28315E;}
	.st2{opacity:0.5;fill:none;stroke:#000000;stroke-width:32;stroke-linecap:round;stroke-miterlimit:10;}
	.st3{opacity:0.5;}
	.st4{stroke:#FFFFFF;stroke-miterlimit:10;}
	.st5{fill:none;}
	.st6{fill:#3AA1DB;}
	.st7{fill:#E63562;}
	.st8{fill:none;stroke:#FFFFFF;stroke-width:3;stroke-miterlimit:10;}
</style>
<g>
	<path class="st0" d="M193.7,75.7c0,11.8-10.3,16.8-21.4,16.8c-10.3,0-18.1-3.9-22.1-12.2l13.4-7.6c1.3,3.9,4.2,6.1,8.7,6.1
		c3.7,0,5.5-1.1,5.5-3.2c0-5.7-25.3-2.7-25.3-20.4c0-11.2,9.5-16.8,20.1-16.8c8.3,0,15.7,3.7,20,11l-13.2,7.1
		c-1.4-2.7-3.5-4.5-6.9-4.5c-2.7,0-4.3,1-4.3,2.9C168.5,60.6,193.7,56.7,193.7,75.7z"/>
	<path class="st0" d="M255.2,65.4c0,15.3-11.1,27.1-24.6,27.1c-6.9,0-11.9-2.4-15.3-6.3v25.4h-15.4V39.8h15.4v4.8
		c3.4-3.9,8.4-6.3,15.3-6.3C244.1,38.3,255.2,50.1,255.2,65.4z M239.8,65.4c0-7.7-5.1-12.5-12.2-12.5s-12.2,4.8-12.2,12.5
		S220.5,78,227.5,78S239.8,73.1,239.8,65.4z"/>
	<path class="st0" d="M259.3,65.4c0-15.3,12.1-27.1,27.2-27.1s27.2,11.8,27.2,27.1s-12.1,27.1-27.2,27.1S259.3,80.8,259.3,65.4z
		 M298.3,65.4c0-7.3-5.1-12.1-11.8-12.1c-6.7,0-11.8,4.8-11.8,12.1c0,7.3,5.1,12.1,11.8,12.1C293.2,77.6,298.3,72.7,298.3,65.4z"/>
	<path class="st0" d="M369.7,59.6v31.5h-15.4V61.8c0-6.4-4-9.3-8.9-9.3c-5.7,0-9.6,3.3-9.6,10.6v28h-15.4V39.8h15.4v4.8
		c2.8-3.8,7.9-6.3,14.7-6.3C360.9,38.3,369.7,45.7,369.7,59.6z"/>
	<path class="st0" d="M404.3,78.8c4.2,0,7.8-1.6,9.9-3.9l12.3,7.1c-5,7-12.6,10.6-22.4,10.6c-17.6,0-28.5-11.8-28.5-27.1
		s11.1-27.1,27.3-27.1c15,0,26.1,11.6,26.1,27.1c0,2.2-0.2,4.2-0.6,6.2H392C394,77,398.7,78.8,404.3,78.8z M413.8,60.1
		c-1.6-6-6.3-8.1-10.9-8.1c-5.9,0-9.8,2.9-11.2,8.1H413.8z"/>
	<path class="st0" d="M463.8,91.1l-9.6-13.6l-9.6,13.6H427L445.4,65l-17.8-25.3h17.7l8.9,12.7l8.9-12.7h17.7L463.1,65l18.4,26.1
		H463.8z"/>
</g>
<g>
	<polygon class="st5" points="66.9,57.8 47.8,65 66.9,72.2 85.9,65 	"/>
	<g>
		<path class="st6" d="M115.3,90.5l-2.8-1.1l-45.6,19.8l34.7,15c5.7,2.5,12.1,1.9,17.3-1.5c5.1-3.4,8.2-9.1,8.2-15.2
			C127.1,100,122.3,93.2,115.3,90.5z"/>
		<path class="st6" d="M115.3,39.5c7-2.7,11.8-9.5,11.8-17c0-6.2-3.1-11.9-8.2-15.2c-3-2-6.5-3-10-3c-2.5,0-4.9,0.5-7.3,1.5
			l-34.7,15l45.6,19.8L115.3,39.5z"/>
		<path class="st6" d="M47.8,65l19-7.2L21.2,40.5l-0.7,0.3C10.9,45,4.7,54.5,4.7,65s6.2,20,15.9,24.2l0.7,0.3l45.6-17.3L47.8,65z"/>
	</g>
	<g>
		<path class="st7" d="M85.9,65l-19,7.2l45.6,17.3l0.7-0.3c9.6-4.2,15.9-13.7,15.9-24.2s-6.2-20-15.9-24.2l-0.7-0.3L66.9,57.8
			L85.9,65z"/>
		<path class="st7" d="M18.4,90.5c-7,2.7-11.8,9.5-11.8,17c0,6.2,3.1,11.9,8.2,15.2c3,2,6.5,3,10,3c2.5,0,4.9-0.5,7.3-1.5l34.7-15
			L21.2,89.5L18.4,90.5z"/>
		<path class="st7" d="M32.1,5.7C26.5,3.2,20,3.8,14.9,7.2c-5.1,3.4-8.2,9.1-8.2,15.2c0,7.5,4.7,14.4,11.8,17l2.8,1.1l45.6-19.8
			L32.1,5.7z"/>
	</g>
	<g>
		<polygon class="st0" points="66.9,72.2 21.2,89.5 66.9,109.3 112.5,89.5 		"/>
		<polygon class="st0" points="112.5,40.5 66.9,20.7 21.2,40.5 66.9,57.8 		"/>
	</g>
</g>
</svg>
